<svg id="svg" version="1.1" xmlns="http://www.w3.org/2000/svg" xmlns:xlink="http://www.w3.org/1999/xlink" width="400" height="245.53846153846155" viewBox="0, 0, 400,245.53846153846155"><g id="svgg"><path id="path0" d="M231.308 57.206 C 231.105 57.341,230.190 57.453,229.275 57.455 C 227.125 57.460,220.527 58.136,219.890 58.416 C 219.619 58.535,218.300 58.814,216.957 59.037 C 215.615 59.259,214.399 59.531,214.256 59.642 C 214.113 59.753,213.278 59.980,212.400 60.147 C 211.522 60.315,210.694 60.537,210.559 60.642 C 210.424 60.746,209.705 60.971,208.963 61.141 C 208.220 61.311,207.155 61.654,206.596 61.903 C 206.037 62.153,205.070 62.493,204.448 62.660 C 203.825 62.826,203.315 63.041,203.315 63.138 C 203.315 63.234,202.956 63.391,202.517 63.487 C 202.078 63.583,200.923 64.034,199.950 64.489 C 198.977 64.944,198.065 65.316,197.924 65.316 C 197.783 65.316,197.667 65.402,197.667 65.508 C 197.667 65.613,197.115 65.914,196.440 66.176 C 195.764 66.438,195.212 66.723,195.212 66.810 C 195.212 66.897,194.687 67.167,194.045 67.409 C 193.404 67.651,192.824 67.921,192.756 68.009 C 192.637 68.164,190.879 69.192,189.503 69.910 C 189.131 70.104,188.828 70.366,188.828 70.491 C 188.828 70.616,188.689 70.718,188.521 70.719 C 188.231 70.719,185.422 72.522,185.149 72.883 C 185.079 72.975,184.647 73.260,184.190 73.515 C 183.732 73.770,183.159 74.156,182.916 74.374 C 182.673 74.592,182.179 74.991,181.819 75.261 C 181.458 75.531,180.816 76.050,180.391 76.415 C 179.967 76.780,178.846 77.722,177.901 78.509 C 174.730 81.147,168.909 87.305,166.360 90.718 C 166.090 91.080,165.703 91.564,165.500 91.795 C 165.085 92.269,161.351 97.810,160.929 98.580 C 160.779 98.854,160.144 99.963,159.519 101.044 C 158.894 102.124,158.382 103.146,158.381 103.315 C 158.380 103.484,158.288 103.622,158.177 103.622 C 157.965 103.622,155.924 107.842,155.924 108.280 C 155.924 108.419,155.831 108.533,155.717 108.533 C 155.604 108.533,155.310 109.196,155.064 110.006 C 154.819 110.816,154.546 111.479,154.458 111.479 C 154.370 111.479,154.093 112.170,153.843 113.014 C 153.593 113.858,153.314 114.604,153.222 114.672 C 153.131 114.739,152.854 115.568,152.608 116.513 C 152.361 117.459,152.078 118.343,151.978 118.478 C 151.878 118.613,151.599 119.662,151.357 120.810 C 151.115 121.958,150.841 122.953,150.748 123.020 C 150.654 123.088,150.388 124.303,150.156 125.721 C 149.923 127.139,149.636 128.521,149.516 128.791 C 148.832 130.338,148.322 139.615,148.934 139.380 C 149.141 139.301,150.052 139.105,150.960 138.946 C 151.867 138.787,152.714 138.564,152.842 138.450 C 152.971 138.337,156.924 138.244,161.628 138.244 C 168.259 138.244,170.201 138.175,170.270 137.937 C 170.320 137.769,170.544 136.031,170.770 134.076 C 170.995 132.121,171.265 130.408,171.369 130.270 C 171.473 130.132,171.694 129.355,171.859 128.545 C 172.232 126.725,173.546 122.449,174.001 121.578 C 174.186 121.223,174.338 120.795,174.339 120.627 C 174.341 120.065,178.175 112.098,178.858 111.234 C 179.018 111.031,179.310 110.534,179.507 110.129 C 179.704 109.724,180.058 109.178,180.295 108.916 C 180.531 108.654,180.724 108.301,180.724 108.130 C 180.724 107.960,180.862 107.732,181.031 107.624 C 181.342 107.426,181.817 106.751,182.122 106.077 C 182.213 105.875,182.489 105.565,182.734 105.388 C 182.979 105.212,183.180 104.912,183.180 104.722 C 183.180 104.531,183.401 104.258,183.671 104.113 C 183.941 103.968,184.162 103.720,184.162 103.561 C 184.162 103.225,184.174 103.212,189.129 98.220 C 191.206 96.126,193.277 94.138,193.732 93.800 C 194.186 93.462,194.821 92.937,195.142 92.634 C 195.463 92.330,195.792 92.081,195.873 92.081 C 195.954 92.081,196.493 91.694,197.069 91.222 C 197.646 90.749,198.181 90.362,198.259 90.362 C 198.336 90.362,199.091 89.892,199.936 89.318 C 200.782 88.744,201.777 88.138,202.149 87.973 C 202.520 87.807,202.824 87.576,202.824 87.460 C 202.824 87.344,203.271 87.101,203.818 86.920 C 204.365 86.740,204.862 86.513,204.921 86.417 C 205.067 86.180,209.090 84.223,209.430 84.223 C 209.578 84.223,209.699 84.137,209.699 84.032 C 209.699 83.926,210.224 83.691,210.866 83.510 C 211.507 83.328,212.266 83.034,212.553 82.857 C 212.840 82.679,213.779 82.352,214.640 82.129 C 215.502 81.906,216.317 81.635,216.452 81.527 C 216.587 81.419,217.581 81.147,218.662 80.922 C 219.742 80.698,220.805 80.418,221.023 80.300 C 221.241 80.183,222.954 79.902,224.829 79.677 C 226.704 79.452,228.455 79.152,228.720 79.010 C 229.412 78.639,241.312 78.660,241.684 79.032 C 241.838 79.186,242.301 79.312,242.713 79.312 C 243.817 79.312,249.335 80.109,249.478 80.289 C 249.546 80.375,250.540 80.642,251.688 80.884 C 252.836 81.126,253.886 81.414,254.021 81.524 C 254.156 81.634,254.985 81.910,255.862 82.136 C 256.740 82.363,257.569 82.635,257.704 82.740 C 257.839 82.845,258.557 83.127,259.300 83.368 C 260.043 83.608,260.706 83.883,260.773 83.978 C 260.841 84.073,261.476 84.342,262.185 84.575 C 262.894 84.809,263.475 85.083,263.475 85.186 C 263.475 85.289,263.917 85.518,264.457 85.697 C 264.997 85.875,265.439 86.093,265.439 86.181 C 265.439 86.269,265.964 86.589,266.605 86.891 C 268.580 87.821,274.214 91.456,275.015 92.317 C 275.083 92.390,275.635 92.832,276.243 93.299 C 278.564 95.083,285.328 101.726,285.328 102.221 C 285.328 102.304,285.577 102.634,285.881 102.955 C 286.185 103.276,286.710 103.901,287.047 104.343 C 287.385 104.785,287.772 105.273,287.907 105.428 C 288.042 105.582,288.620 106.427,289.191 107.305 C 289.762 108.183,290.330 109.022,290.454 109.170 C 290.577 109.317,290.871 109.815,291.107 110.275 C 291.343 110.735,291.606 111.166,291.692 111.234 C 291.779 111.301,292.056 111.826,292.309 112.400 C 292.562 112.974,292.852 113.444,292.953 113.444 C 293.054 113.444,293.335 113.996,293.578 114.672 C 293.821 115.347,294.099 115.899,294.197 115.899 C 294.294 115.899,294.565 116.479,294.799 117.188 C 295.032 117.897,295.301 118.533,295.396 118.600 C 295.491 118.668,295.766 119.331,296.006 120.074 C 296.246 120.816,296.529 121.535,296.634 121.670 C 296.739 121.805,296.998 122.583,297.209 123.400 C 297.420 124.216,297.750 125.210,297.941 125.609 C 298.132 126.009,298.427 127.109,298.597 128.054 C 298.766 128.999,298.982 129.828,299.076 129.896 C 299.249 130.020,300.070 135.463,300.064 136.453 C 300.063 136.750,300.190 137.275,300.346 137.619 L 300.631 138.244 311.273 138.244 L 321.915 138.244 321.915 137.252 C 321.915 135.700,321.192 129.337,320.954 128.791 C 320.836 128.521,320.549 127.139,320.317 125.721 C 320.085 124.303,319.818 123.088,319.725 123.020 C 319.632 122.953,319.358 121.958,319.116 120.810 C 318.874 119.662,318.592 118.613,318.489 118.478 C 318.387 118.343,318.170 117.686,318.006 117.018 C 317.843 116.351,317.507 115.356,317.258 114.808 C 317.010 114.260,316.683 113.347,316.531 112.779 C 316.379 112.211,316.159 111.687,316.043 111.615 C 315.926 111.543,315.760 111.203,315.674 110.859 C 315.588 110.515,315.204 109.547,314.821 108.708 C 314.438 107.869,314.047 106.934,313.952 106.630 C 313.857 106.326,313.698 106.077,313.599 106.077 C 313.501 106.077,313.271 105.663,313.090 105.157 C 312.909 104.650,312.682 104.180,312.585 104.113 C 312.488 104.045,312.168 103.493,311.874 102.885 C 310.935 100.944,310.322 99.819,310.134 99.693 C 310.034 99.626,309.755 99.184,309.515 98.711 C 309.275 98.238,309.010 97.796,308.926 97.729 C 308.842 97.661,308.556 97.192,308.290 96.685 C 308.025 96.179,307.739 95.764,307.656 95.764 C 307.573 95.764,307.297 95.378,307.042 94.905 C 306.788 94.432,306.502 94.045,306.406 94.045 C 306.311 94.045,306.169 93.844,306.091 93.598 C 306.013 93.351,305.748 92.934,305.502 92.671 C 305.257 92.407,304.846 91.863,304.589 91.461 C 304.332 91.059,303.926 90.586,303.688 90.410 C 303.449 90.233,303.254 89.978,303.254 89.842 C 303.254 89.705,302.982 89.297,302.650 88.935 C 301.614 87.803,299.980 85.956,298.956 84.759 C 298.106 83.764,293.597 79.439,291.683 77.783 C 290.377 76.652,288.850 75.456,287.047 74.150 C 286.304 73.612,285.586 73.084,285.451 72.977 C 285.316 72.869,284.847 72.569,284.408 72.310 C 283.969 72.052,283.610 71.779,283.610 71.703 C 283.610 71.628,283.195 71.349,282.689 71.083 C 282.182 70.818,281.713 70.531,281.645 70.447 C 281.578 70.362,281.080 70.050,280.540 69.753 C 280.000 69.455,279.116 68.944,278.576 68.615 C 278.036 68.287,277.096 67.782,276.489 67.492 C 275.881 67.202,275.328 66.888,275.261 66.793 C 275.193 66.699,274.613 66.423,273.972 66.181 C 273.330 65.939,272.805 65.663,272.805 65.567 C 272.805 65.472,272.336 65.255,271.762 65.086 C 271.188 64.916,270.374 64.567,269.953 64.310 C 269.532 64.053,269.065 63.843,268.916 63.843 C 268.767 63.843,268.062 63.577,267.349 63.253 C 266.636 62.928,265.556 62.530,264.948 62.369 C 264.340 62.208,263.732 61.986,263.597 61.876 C 263.462 61.767,262.650 61.495,261.793 61.274 C 260.936 61.052,260.052 60.770,259.829 60.648 C 259.139 60.270,252.163 58.697,251.150 58.690 C 250.787 58.688,250.430 58.590,250.358 58.473 C 249.949 57.811,232.176 56.629,231.308 57.206 M17.426 224.248 C 17.260 224.957,17.041 225.648,16.940 225.783 C 16.838 225.918,16.557 226.967,16.315 228.115 C 16.073 229.263,15.804 230.258,15.717 230.325 C 15.631 230.393,15.356 231.443,15.107 232.658 C 14.858 233.874,14.581 234.923,14.493 234.991 C 14.404 235.058,14.128 236.108,13.879 237.324 C 13.630 238.539,13.354 239.589,13.265 239.656 C 13.177 239.724,12.904 240.748,12.658 241.933 C 12.413 243.118,12.117 244.147,11.999 244.219 C 11.882 244.291,11.786 244.620,11.786 244.950 L 11.786 245.549 14.794 245.548 L 17.802 245.546 18.107 244.890 C 18.274 244.530,18.599 243.343,18.830 242.253 C 19.060 241.162,19.317 240.215,19.401 240.147 C 19.485 240.080,19.758 239.030,20.007 237.815 C 20.256 236.599,20.535 235.549,20.626 235.482 C 20.718 235.414,20.996 234.365,21.246 233.149 C 21.495 231.934,21.773 230.884,21.863 230.816 C 21.954 230.749,22.166 230.114,22.334 229.405 L 22.640 228.115 24.606 228.115 C 26.521 228.115,26.569 228.130,26.440 228.668 C 26.367 228.972,26.167 229.911,25.996 230.755 C 25.824 231.599,25.596 232.290,25.488 232.290 C 25.380 232.290,25.292 232.476,25.292 232.704 C 25.292 233.276,24.577 236.258,24.331 236.716 C 24.220 236.921,23.929 238.026,23.685 239.171 C 23.441 240.316,23.168 241.308,23.078 241.375 C 22.988 241.443,22.785 242.161,22.626 242.971 C 22.468 243.781,22.271 244.693,22.190 244.997 C 22.042 245.549,22.044 245.549,25.235 245.549 L 28.428 245.549 28.737 243.892 C 28.907 242.980,29.121 242.179,29.213 242.112 C 29.305 242.044,29.578 241.050,29.820 239.902 C 30.062 238.754,30.346 237.704,30.451 237.569 C 30.556 237.434,30.831 236.392,31.061 235.254 C 31.292 234.116,31.581 233.011,31.704 232.799 C 31.827 232.586,32.119 231.473,32.354 230.325 L 32.782 228.238 34.807 228.167 C 37.048 228.088,37.174 228.203,36.558 229.757 C 36.408 230.137,36.082 231.277,35.834 232.290 C 34.683 236.996,34.331 238.333,34.148 238.680 C 34.040 238.886,33.753 239.991,33.512 241.135 C 33.271 242.280,32.989 243.327,32.887 243.462 C 32.785 243.597,32.625 244.122,32.530 244.629 L 32.358 245.549 35.395 245.549 C 38.963 245.549,38.782 245.682,39.439 242.576 C 39.679 241.443,39.944 240.460,40.029 240.393 C 40.114 240.325,40.382 239.331,40.624 238.183 C 40.866 237.035,41.149 235.985,41.252 235.850 C 41.356 235.715,41.636 234.665,41.875 233.517 C 42.115 232.370,42.393 231.320,42.495 231.185 C 42.596 231.050,42.876 230.000,43.118 228.852 C 43.360 227.704,43.640 226.708,43.740 226.638 C 43.840 226.567,43.996 225.945,44.088 225.254 C 44.411 222.818,45.248 222.959,30.473 222.959 L 17.729 222.959 17.426 224.248 M62.249 223.444 C 62.162 223.717,61.995 223.941,61.878 223.941 C 61.762 223.941,61.588 224.190,61.493 224.494 C 61.398 224.797,61.087 225.339,60.801 225.697 C 60.516 226.056,59.951 226.921,59.546 227.621 C 59.141 228.321,58.692 229.022,58.550 229.180 C 58.407 229.337,58.076 229.851,57.813 230.321 C 57.551 230.791,57.225 231.307,57.090 231.467 C 56.955 231.627,56.513 232.330,56.108 233.030 C 55.703 233.729,55.141 234.595,54.859 234.953 C 54.578 235.312,54.192 235.964,54.001 236.403 C 53.811 236.842,53.570 237.201,53.466 237.201 C 53.362 237.201,53.092 237.587,52.866 238.060 C 52.641 238.533,52.367 238.920,52.257 238.920 C 52.147 238.920,52.056 239.035,52.056 239.176 C 52.056 239.414,50.392 242.148,49.882 242.749 C 49.756 242.896,49.461 243.388,49.227 243.842 C 48.992 244.295,48.629 244.837,48.420 245.046 C 48.076 245.390,48.390 245.433,51.660 245.495 C 55.706 245.571,55.606 245.609,56.648 243.585 C 56.891 243.112,57.228 242.637,57.397 242.529 C 57.566 242.421,57.704 242.225,57.704 242.094 C 57.704 241.881,59.064 239.724,59.642 239.019 C 59.763 238.872,60.055 238.374,60.291 237.914 C 60.526 237.454,60.799 237.023,60.896 236.955 C 60.994 236.888,61.270 236.446,61.510 235.973 C 61.750 235.500,62.020 235.058,62.110 234.991 C 62.199 234.923,62.543 234.426,62.874 233.886 L 63.475 232.904 63.636 234.377 C 63.725 235.187,63.876 236.983,63.972 238.367 L 64.147 240.884 61.680 240.884 L 59.212 240.884 58.936 242.296 C 58.785 243.072,58.566 243.929,58.450 244.199 C 57.824 245.659,57.295 245.549,64.956 245.549 C 72.058 245.549,72.201 245.530,71.719 244.625 C 71.593 244.391,71.309 241.657,71.086 238.551 C 70.863 235.445,70.611 232.738,70.526 232.535 C 70.441 232.333,70.201 230.123,69.993 227.624 L 69.613 223.082 66.010 223.014 C 62.576 222.949,62.399 222.969,62.249 223.444 M88.521 223.197 C 87.382 223.676,86.795 225.003,85.797 229.343 C 85.595 230.221,85.337 231.112,85.222 231.322 C 85.108 231.533,84.831 232.582,84.606 233.655 C 84.381 234.727,84.111 235.770,84.004 235.973 C 83.898 236.176,83.619 237.170,83.384 238.183 C 83.150 239.196,82.861 240.246,82.743 240.516 C 82.307 241.511,82.016 243.005,82.015 244.260 L 82.014 245.549 89.810 245.539 L 97.606 245.528 99.051 243.659 C 101.365 240.665,101.690 240.884,94.933 240.884 C 91.022 240.884,89.134 240.799,89.134 240.624 C 89.134 240.176,89.649 238.078,89.855 237.686 C 89.963 237.480,90.249 236.375,90.490 235.230 C 90.732 234.086,91.011 233.039,91.110 232.904 C 91.210 232.769,91.481 231.798,91.713 230.746 C 92.318 228.004,92.077 228.115,97.378 228.115 C 101.381 228.115,101.946 228.066,102.279 227.686 C 103.690 226.071,104.132 225.495,104.254 225.113 C 104.329 224.873,104.492 224.678,104.614 224.678 C 104.815 224.678,105.586 223.422,105.586 223.094 C 105.586 222.872,89.054 222.972,88.521 223.197 M114.942 223.880 C 114.810 224.386,114.624 225.242,114.528 225.783 C 114.433 226.323,114.280 226.820,114.188 226.888 C 114.096 226.955,113.823 227.950,113.581 229.098 C 113.339 230.246,113.055 231.295,112.951 231.430 C 112.846 231.565,112.584 232.542,112.367 233.601 C 112.150 234.660,111.889 235.654,111.787 235.811 C 111.685 235.968,111.414 236.869,111.184 237.815 C 110.520 240.544,109.595 243.892,109.297 244.645 C 109.147 245.025,109.024 245.384,109.024 245.443 C 109.024 245.501,110.501 245.549,112.305 245.549 L 115.587 245.549 115.901 244.015 C 116.074 243.171,116.382 241.983,116.585 241.375 C 116.788 240.767,117.132 239.441,117.348 238.428 L 117.742 236.587 120.995 236.518 L 124.248 236.450 124.248 237.071 C 124.248 237.412,124.153 237.692,124.036 237.692 C 123.919 237.692,123.633 238.659,123.399 239.840 C 123.165 241.022,122.887 242.099,122.780 242.234 C 122.600 242.463,122.038 244.795,122.038 245.316 C 122.038 245.451,123.325 245.549,125.091 245.549 C 128.451 245.549,128.191 245.679,128.555 243.831 C 128.648 243.358,128.811 242.861,128.916 242.726 C 129.021 242.591,129.296 241.541,129.527 240.393 C 129.758 239.245,130.032 238.195,130.135 238.060 C 130.239 237.925,130.516 236.931,130.750 235.850 C 130.985 234.770,131.262 233.775,131.367 233.640 C 131.471 233.505,131.753 232.455,131.992 231.308 C 132.231 230.160,132.509 229.110,132.610 228.975 C 132.710 228.840,132.992 227.762,133.236 226.581 C 133.480 225.399,133.767 224.432,133.875 224.432 C 133.982 224.432,134.070 224.101,134.070 223.696 L 134.070 222.959 131.001 222.959 C 128.095 222.959,127.931 222.985,127.931 223.450 C 127.931 223.720,127.838 223.941,127.724 223.941 C 127.610 223.941,127.318 224.908,127.075 226.090 C 126.832 227.271,126.550 228.349,126.449 228.484 C 126.348 228.619,126.077 229.586,125.846 230.632 L 125.426 232.535 122.136 232.535 C 119.006 232.535,118.567 232.446,119.060 231.909 C 119.178 231.781,119.463 230.847,119.693 229.834 C 119.923 228.821,120.210 227.772,120.331 227.502 C 120.584 226.937,121.301 223.839,121.301 223.312 C 121.301 223.024,120.739 222.959,118.242 222.959 L 115.182 222.959 114.942 223.880 M143.646 223.558 C 143.646 223.888,143.551 224.217,143.433 224.289 C 143.316 224.362,143.020 225.390,142.774 226.575 C 142.529 227.760,142.254 228.785,142.163 228.852 C 142.072 228.920,141.792 229.997,141.542 231.246 C 141.291 232.495,141.013 233.517,140.924 233.517 C 140.835 233.517,140.562 234.484,140.318 235.666 C 140.073 236.848,139.801 237.870,139.712 237.937 C 139.624 238.005,139.347 239.055,139.098 240.270 C 138.849 241.486,138.572 242.535,138.483 242.603 C 138.394 242.670,138.254 243.072,138.172 243.495 C 138.090 243.918,137.949 244.557,137.859 244.914 L 137.696 245.565 140.840 245.496 L 143.984 245.427 144.192 244.567 C 144.307 244.095,144.498 243.487,144.618 243.217 C 144.738 242.947,145.017 241.897,145.238 240.884 C 145.459 239.871,145.735 238.864,145.852 238.647 C 145.968 238.430,146.259 237.325,146.499 236.191 C 146.738 235.058,147.006 234.076,147.092 234.009 C 147.179 233.941,147.454 232.891,147.703 231.676 C 147.953 230.460,148.229 229.411,148.317 229.343 C 148.406 229.276,148.682 228.226,148.931 227.010 C 149.180 225.795,149.460 224.745,149.554 224.678 C 149.647 224.610,149.801 224.196,149.897 223.757 L 150.070 222.959 146.858 222.959 L 143.646 222.959 143.646 223.558 M159.367 223.440 C 159.225 223.705,158.933 224.782,158.717 225.834 C 158.502 226.886,158.240 227.858,158.136 227.993 C 158.031 228.128,157.750 229.177,157.511 230.325 C 157.271 231.473,156.993 232.523,156.893 232.658 C 156.793 232.793,156.511 233.870,156.267 235.052 C 156.023 236.234,155.735 237.201,155.628 237.201 C 155.521 237.201,155.433 237.387,155.433 237.615 C 155.433 238.172,154.721 241.130,154.439 241.743 C 154.315 242.014,154.097 242.787,153.955 243.462 C 153.812 244.138,153.637 244.883,153.566 245.120 C 153.446 245.514,153.701 245.549,156.617 245.549 L 159.799 245.549 160.117 243.953 C 160.291 243.076,160.505 242.357,160.592 242.357 C 160.680 242.357,160.957 241.308,161.210 240.025 C 161.462 238.742,161.744 237.692,161.838 237.692 C 161.931 237.692,162.145 236.946,162.313 236.034 C 162.481 235.123,162.704 234.266,162.808 234.131 C 162.912 233.996,163.196 232.947,163.438 231.799 C 163.679 230.651,163.955 229.656,164.050 229.589 C 164.145 229.521,164.262 229.190,164.309 228.852 C 164.397 228.224,169.147 227.729,169.699 228.291 C 169.906 228.501,169.331 231.619,168.938 232.413 C 168.805 232.683,168.526 233.724,168.320 234.727 C 168.113 235.730,167.848 236.669,167.730 236.814 C 167.612 236.959,167.327 238.017,167.096 239.165 C 166.866 240.313,166.591 241.363,166.485 241.498 C 166.380 241.633,166.167 242.349,166.010 243.090 C 165.854 243.830,165.664 244.686,165.587 244.993 L 165.447 245.549 168.638 245.549 L 171.829 245.549 172.135 243.892 C 172.303 242.980,172.535 242.114,172.651 241.967 C 172.767 241.820,173.040 240.826,173.259 239.757 C 173.478 238.689,173.744 237.704,173.850 237.569 C 173.956 237.434,174.232 236.384,174.463 235.236 C 174.694 234.088,174.969 233.039,175.074 232.904 C 175.179 232.769,175.460 231.719,175.700 230.571 C 175.939 229.423,176.216 228.373,176.314 228.238 C 177.053 227.223,177.236 223.572,176.566 223.213 C 175.561 222.675,159.664 222.885,159.367 223.440 M187.153 223.511 C 186.877 224.047,186.701 224.685,185.615 229.098 C 185.333 230.246,185.009 231.363,184.897 231.580 C 184.784 231.798,184.496 232.903,184.256 234.036 C 184.017 235.169,183.750 236.151,183.663 236.219 C 183.576 236.286,183.301 237.336,183.052 238.551 C 182.803 239.767,182.520 240.816,182.424 240.884 C 182.328 240.952,182.028 242.029,181.758 243.278 L 181.266 245.549 189.295 245.549 L 197.323 245.549 198.846 243.533 C 200.993 240.688,201.306 240.884,194.598 240.884 C 191.424 240.884,188.830 240.801,188.834 240.700 C 188.847 240.279,189.344 238.269,189.546 237.815 C 189.667 237.545,189.826 237.133,189.900 236.900 C 190.021 236.522,190.517 236.468,194.396 236.408 L 198.757 236.341 198.971 235.236 C 199.088 234.629,199.285 234.026,199.408 233.898 C 199.531 233.770,199.632 233.411,199.632 233.100 L 199.632 232.535 195.318 232.535 C 191.329 232.535,191.013 232.503,191.122 232.106 C 191.187 231.869,191.375 231.068,191.540 230.325 C 192.067 227.948,191.650 228.115,197.045 228.115 L 201.808 228.115 202.371 227.317 C 202.680 226.878,203.128 226.306,203.367 226.046 C 203.605 225.786,203.864 225.372,203.943 225.126 C 204.021 224.879,204.185 224.678,204.307 224.678 C 204.509 224.678,205.279 223.422,205.279 223.094 C 205.279 223.020,201.265 222.959,196.358 222.959 L 187.437 222.959 187.153 223.511 M232.211 223.143 C 232.151 223.244,231.907 224.266,231.667 225.414 C 231.427 226.562,231.151 227.612,231.053 227.747 C 230.955 227.882,230.676 228.932,230.434 230.080 C 230.192 231.228,229.924 232.222,229.838 232.290 C 229.753 232.357,229.478 233.352,229.226 234.500 C 228.975 235.648,228.688 236.697,228.589 236.832 C 228.489 236.967,228.210 238.017,227.968 239.165 C 227.726 240.313,227.458 241.308,227.372 241.375 C 227.093 241.594,226.681 244.180,226.815 244.874 L 226.945 245.549 240.149 245.549 L 253.354 245.549 253.671 243.953 C 253.845 243.076,254.060 242.357,254.147 242.357 C 254.234 242.357,254.512 241.308,254.764 240.025 C 255.016 238.742,255.292 237.692,255.378 237.692 C 255.463 237.692,255.739 236.642,255.992 235.359 C 256.244 234.076,256.527 233.026,256.622 233.026 C 256.716 233.026,256.990 231.977,257.232 230.694 C 257.474 229.411,257.750 228.361,257.846 228.361 C 257.942 228.361,258.222 227.366,258.468 226.151 C 258.713 224.936,259.001 223.941,259.107 223.941 C 259.213 223.941,259.300 223.720,259.300 223.450 C 259.300 222.985,259.136 222.959,256.261 222.959 C 252.700 222.959,252.882 222.835,252.293 225.660 C 252.053 226.808,251.775 227.858,251.674 227.993 C 251.572 228.128,251.292 229.177,251.050 230.325 C 250.808 231.473,250.539 232.468,250.452 232.535 C 250.365 232.603,250.090 233.653,249.841 234.868 C 249.592 236.083,249.315 237.133,249.226 237.201 C 249.137 237.268,248.990 237.704,248.899 238.170 C 248.809 238.635,248.621 239.436,248.483 239.950 L 248.232 240.884 246.154 240.884 C 244.309 240.884,243.659 240.680,244.281 240.295 C 244.394 240.226,244.688 239.197,244.934 238.009 C 245.181 236.822,245.454 235.795,245.542 235.727 C 245.629 235.660,245.906 234.665,246.157 233.517 C 246.409 232.370,246.693 231.320,246.790 231.185 C 246.886 231.050,247.163 230.000,247.405 228.852 C 247.647 227.704,247.915 226.710,247.999 226.642 C 248.186 226.493,248.742 224.089,248.742 223.431 C 248.742 222.991,248.538 222.959,245.711 222.959 L 242.681 222.959 242.369 224.371 C 242.197 225.147,241.972 225.893,241.868 226.028 C 241.764 226.163,241.480 227.213,241.238 228.361 C 240.996 229.509,240.725 230.503,240.636 230.571 C 240.547 230.638,240.269 231.716,240.019 232.965 C 239.768 234.214,239.492 235.236,239.406 235.236 C 239.320 235.236,239.043 236.286,238.790 237.569 C 238.538 238.852,238.243 239.902,238.135 239.902 C 238.026 239.902,237.937 240.123,237.937 240.393 C 237.937 240.843,237.774 240.884,235.973 240.884 C 234.618 240.884,234.009 240.793,234.009 240.592 C 234.009 239.972,234.606 237.446,234.752 237.446 C 234.837 237.446,235.113 236.397,235.366 235.114 C 235.618 233.831,235.901 232.781,235.995 232.781 C 236.090 232.781,236.364 231.731,236.606 230.448 C 236.848 229.165,237.123 228.115,237.218 228.115 C 237.313 228.115,237.530 227.370,237.700 226.458 C 237.870 225.546,238.086 224.745,238.180 224.678 C 238.274 224.610,238.421 224.196,238.507 223.757 L 238.662 222.959 235.490 222.959 C 233.746 222.959,232.270 223.042,232.211 223.143 M269.859 223.138 C 269.014 223.461,268.352 224.549,267.901 226.356 C 266.648 231.375,266.298 232.668,266.165 232.781 C 266.085 232.848,265.818 233.898,265.571 235.114 C 265.325 236.329,265.039 237.434,264.936 237.569 C 264.833 237.704,264.551 238.754,264.310 239.902 C 264.068 241.050,263.774 242.055,263.656 242.136 C 263.539 242.217,263.422 242.991,263.397 243.855 L 263.352 245.427 271.835 245.491 C 281.680 245.566,281.112 245.707,281.631 243.057 C 281.799 242.200,282.024 241.387,282.130 241.252 C 282.237 241.117,282.522 240.068,282.764 238.920 C 283.007 237.772,283.276 236.777,283.362 236.710 C 283.449 236.642,283.723 235.592,283.972 234.377 C 284.222 233.161,284.497 232.112,284.584 232.044 C 284.671 231.977,284.948 230.982,285.200 229.834 C 285.451 228.686,285.764 227.607,285.894 227.437 C 286.396 226.780,286.424 223.649,285.931 223.289 C 285.469 222.951,270.711 222.813,269.859 223.138 M296.016 224.985 C 295.778 226.099,295.505 227.121,295.408 227.256 C 295.312 227.391,295.028 228.441,294.776 229.589 C 294.525 230.737,294.250 231.731,294.166 231.799 C 294.082 231.866,293.809 232.916,293.560 234.131 C 293.311 235.347,293.032 236.397,292.940 236.464 C 292.849 236.532,292.570 237.581,292.321 238.797 C 292.072 240.012,291.791 241.062,291.697 241.130 C 291.544 241.239,290.731 244.776,290.731 245.330 C 290.731 245.797,296.824 245.591,296.958 245.120 C 297.025 244.883,297.219 244.027,297.389 243.217 C 297.559 242.406,297.770 241.688,297.857 241.621 C 297.944 241.553,298.220 240.476,298.471 239.227 C 298.915 237.016,299.174 236.506,299.405 237.385 C 299.467 237.621,299.660 238.367,299.833 239.042 C 300.006 239.718,300.216 240.325,300.299 240.393 C 300.382 240.460,300.648 241.371,300.890 242.417 C 301.132 243.463,301.431 244.381,301.555 244.457 C 301.679 244.534,301.780 244.811,301.780 245.073 C 301.780 245.525,301.984 245.549,305.709 245.549 C 307.870 245.549,309.638 245.488,309.638 245.413 C 309.638 245.054,309.055 242.942,308.896 242.726 C 308.797 242.591,308.510 241.651,308.258 240.638 C 308.006 239.626,307.734 238.742,307.654 238.674 C 307.574 238.607,307.392 238.082,307.249 237.508 L 306.989 236.464 308.664 236.464 C 310.328 236.464,310.416 236.428,311.297 235.376 C 311.466 235.174,311.773 234.211,311.978 233.238 C 312.183 232.264,312.448 231.348,312.567 231.203 C 312.686 231.058,312.921 230.221,313.088 229.343 C 313.255 228.465,313.476 227.637,313.580 227.502 C 313.874 227.119,314.259 224.691,314.120 224.101 C 313.854 222.978,313.700 222.959,304.838 222.959 L 296.449 222.959 296.016 224.985 M323.863 224.678 C 323.694 225.623,323.478 226.397,323.383 226.397 C 323.288 226.397,323.019 227.363,322.785 228.545 C 322.551 229.727,322.272 230.804,322.164 230.939 C 322.057 231.074,321.777 232.069,321.542 233.149 C 321.307 234.230,321.031 235.224,320.927 235.359 C 320.824 235.494,320.550 236.544,320.319 237.692 C 320.088 238.840,319.812 239.890,319.705 240.025 C 319.598 240.160,319.310 241.237,319.066 242.419 C 318.822 243.600,318.535 244.567,318.427 244.567 C 318.320 244.567,318.232 244.788,318.232 245.058 C 318.232 245.523,318.396 245.549,321.271 245.549 C 324.837 245.549,324.663 245.668,325.230 242.848 C 325.461 241.700,325.735 240.651,325.838 240.516 C 325.942 240.381,326.217 239.386,326.450 238.306 C 326.684 237.225,326.974 236.236,327.096 236.108 C 327.218 235.980,327.317 235.676,327.317 235.433 C 327.317 234.452,327.774 235.075,327.938 236.280 C 328.034 236.989,328.189 237.624,328.282 237.692 C 328.375 237.759,328.684 239.030,328.970 240.516 C 329.256 242.001,329.617 243.742,329.774 244.383 L 330.058 245.549 333.749 245.549 L 337.440 245.549 337.267 244.629 C 337.172 244.123,337.014 243.653,336.916 243.586 C 336.818 243.518,336.535 242.468,336.285 241.252 C 336.036 240.037,335.756 238.987,335.661 238.920 C 335.567 238.852,335.296 237.913,335.058 236.832 C 334.821 235.752,334.547 234.813,334.449 234.745 C 334.352 234.678,334.162 234.051,334.026 233.353 L 333.780 232.083 338.038 227.831 C 340.380 225.492,342.296 223.439,342.296 223.268 C 342.296 223.034,341.450 222.960,338.797 222.962 L 335.298 222.965 333.824 224.567 C 330.314 228.383,328.709 229.926,328.873 229.326 C 328.963 228.998,329.106 228.315,329.191 227.808 C 329.275 227.302,329.422 226.888,329.516 226.888 C 329.684 226.888,330.264 224.153,330.264 223.360 C 330.264 223.010,329.873 222.959,327.217 222.959 L 324.170 222.959 323.863 224.678 M352.727 223.191 C 352.455 223.302,352.083 223.709,351.901 224.096 C 351.719 224.484,351.487 224.969,351.385 225.175 C 351.284 225.381,351.001 226.485,350.757 227.630 C 350.513 228.775,350.240 229.767,350.152 229.834 C 349.905 230.022,349.351 232.729,349.232 234.325 C 349.069 236.516,348.937 236.463,354.665 236.468 C 360.959 236.473,360.589 236.166,359.171 240.209 L 358.934 240.884 354.482 240.884 L 350.031 240.884 349.110 241.834 C 348.603 242.356,348.189 242.853,348.189 242.938 C 348.189 243.023,347.747 243.549,347.207 244.105 C 346.667 244.662,346.225 245.216,346.225 245.337 C 346.225 245.462,349.971 245.528,354.994 245.491 L 363.763 245.427 364.140 244.690 C 364.348 244.285,364.582 243.898,364.659 243.831 C 364.737 243.763,364.998 242.769,365.241 241.621 C 365.483 240.473,365.764 239.423,365.865 239.288 C 366.184 238.861,366.851 235.470,366.851 234.273 C 366.851 232.517,366.914 232.535,361.010 232.535 L 355.758 232.535 355.932 231.492 C 356.028 230.918,356.188 230.393,356.287 230.325 C 356.386 230.258,356.541 229.799,356.632 229.305 C 356.850 228.119,356.865 228.116,362.021 228.111 L 366.483 228.107 367.281 227.145 C 367.719 226.617,368.079 226.126,368.079 226.056 C 368.079 225.985,368.363 225.619,368.710 225.241 C 370.957 222.797,371.456 222.956,361.633 222.974 C 357.007 222.983,353.000 223.080,352.727 223.191 M279.050 228.333 C 279.209 228.590,278.691 231.375,278.451 231.553 C 278.361 231.621,278.083 232.670,277.834 233.886 C 277.585 235.101,277.304 236.151,277.209 236.219 C 277.115 236.286,276.860 237.205,276.643 238.260 C 276.112 240.838,276.050 240.884,273.109 240.884 C 271.772 240.884,270.620 240.827,270.550 240.757 C 270.383 240.589,270.868 238.096,271.099 237.937 C 271.197 237.870,271.467 236.875,271.699 235.727 C 271.930 234.579,272.207 233.530,272.313 233.395 C 272.419 233.260,272.701 232.265,272.938 231.185 C 273.608 228.137,273.633 228.115,276.502 228.115 C 277.829 228.115,278.976 228.213,279.050 228.333 M306.774 229.074 C 306.751 229.534,306.613 230.142,306.466 230.425 C 306.318 230.708,306.056 231.657,305.881 232.535 L 305.565 234.131 302.695 234.201 L 299.825 234.270 299.978 233.464 C 300.062 233.021,300.215 232.548,300.318 232.413 C 300.421 232.277,300.701 231.252,300.941 230.134 L 301.376 228.100 304.095 228.169 L 306.814 228.238 306.774 229.074 " stroke="none" fill="#e44434" fill-rule="evenodd"></path><path id="path1" d="M204.665 0.521 C 203.180 0.778,201.743 1.091,201.473 1.216 C 201.203 1.341,200.043 1.633,198.895 1.865 C 197.747 2.097,196.697 2.364,196.562 2.460 C 196.427 2.556,195.488 2.830,194.475 3.069 C 193.462 3.309,192.523 3.585,192.388 3.683 C 192.253 3.781,191.341 4.054,190.362 4.290 C 189.383 4.526,188.582 4.792,188.582 4.883 C 188.582 4.974,187.808 5.247,186.863 5.491 C 185.918 5.734,185.144 6.023,185.144 6.131 C 185.144 6.240,184.738 6.406,184.241 6.499 C 183.744 6.592,182.888 6.872,182.338 7.122 C 180.748 7.842,178.217 8.853,177.348 9.114 C 176.764 9.290,176.549 9.499,176.547 9.895 C 176.537 11.378,177.356 20.568,177.535 20.994 C 177.649 21.265,177.933 24.027,178.165 27.133 C 178.398 30.239,178.671 32.891,178.773 33.026 C 179.157 33.536,179.343 39.288,178.976 39.291 C 178.790 39.293,178.361 39.512,178.023 39.777 C 176.430 41.030,175.051 41.989,174.841 41.989 C 174.714 41.989,174.522 42.128,174.414 42.298 C 174.306 42.468,173.803 42.825,173.297 43.091 C 172.790 43.357,172.376 43.656,172.376 43.757 C 172.376 43.858,172.017 44.124,171.578 44.349 C 171.139 44.573,170.691 44.907,170.583 45.092 C 170.475 45.276,170.244 45.427,170.069 45.427 C 169.894 45.427,169.558 45.640,169.322 45.900 C 169.086 46.161,168.517 46.553,168.056 46.771 C 167.596 46.990,167.219 47.260,167.219 47.373 C 167.219 47.485,166.885 47.715,166.477 47.885 C 166.068 48.054,165.654 48.316,165.556 48.467 C 165.458 48.618,164.217 49.515,162.799 50.460 C 161.381 51.406,160.075 52.317,159.897 52.486 C 159.718 52.655,159.490 52.793,159.390 52.793 C 159.290 52.793,158.991 52.986,158.724 53.223 C 156.595 55.111,155.731 55.424,154.499 54.756 C 153.137 54.017,149.844 52.548,149.551 52.548 C 149.410 52.548,149.294 52.448,149.294 52.327 C 149.294 52.205,148.742 51.907,148.066 51.664 C 147.391 51.421,146.839 51.145,146.839 51.050 C 146.839 50.956,146.286 50.679,145.611 50.437 C 144.936 50.194,144.383 49.914,144.383 49.815 C 144.383 49.715,144.134 49.557,143.831 49.463 C 143.527 49.370,142.505 48.920,141.560 48.465 C 140.615 48.009,139.704 47.637,139.534 47.637 C 139.365 47.637,139.227 47.535,139.227 47.411 C 139.227 47.287,138.674 47.001,137.999 46.777 C 137.324 46.553,136.771 46.290,136.771 46.192 C 136.771 46.095,136.219 45.816,135.543 45.573 C 134.868 45.330,134.316 45.032,134.316 44.911 C 134.316 44.789,134.177 44.689,134.009 44.687 C 133.840 44.685,133.070 44.364,132.299 43.972 C 131.527 43.581,130.496 43.129,130.007 42.967 L 129.118 42.674 127.481 44.395 C 126.581 45.342,125.292 46.748,124.616 47.520 C 123.941 48.292,123.030 49.325,122.592 49.815 C 122.153 50.305,121.794 50.784,121.794 50.879 C 121.793 50.974,121.544 51.319,121.240 51.646 C 120.936 51.973,120.411 52.573,120.074 52.980 C 119.469 53.708,119.317 53.905,117.845 55.862 C 117.439 56.403,116.951 57.033,116.761 57.263 C 116.571 57.493,116.241 58.018,116.028 58.429 C 115.815 58.841,115.559 59.177,115.458 59.177 C 115.357 59.177,115.057 59.592,114.791 60.098 C 114.526 60.605,114.169 61.107,113.999 61.215 C 113.829 61.323,113.689 61.551,113.689 61.722 C 113.689 61.892,113.496 62.249,113.260 62.516 C 112.632 63.224,111.234 65.299,111.234 65.523 C 111.234 65.628,111.041 65.929,110.804 66.191 C 110.568 66.452,110.209 66.998,110.006 67.403 C 109.804 67.808,109.389 68.514,109.085 68.972 C 108.377 70.040,108.382 70.085,109.331 71.084 C 109.770 71.546,110.681 72.546,111.357 73.305 C 112.032 74.064,113.066 75.201,113.654 75.832 C 114.242 76.463,115.114 77.452,115.591 78.029 C 116.068 78.606,116.858 79.508,117.345 80.034 C 117.833 80.559,118.785 81.614,119.460 82.377 C 120.135 83.141,121.205 84.338,121.837 85.038 C 122.469 85.738,123.629 87.034,124.415 87.919 C 125.201 88.803,126.337 90.074,126.939 90.743 C 127.951 91.866,128.226 92.697,127.707 93.063 C 127.611 93.131,127.329 93.959,127.079 94.905 C 126.829 95.850,126.555 96.679,126.468 96.746 C 126.382 96.814,126.101 97.587,125.844 98.465 C 125.587 99.343,125.306 100.117,125.220 100.184 C 125.134 100.252,124.859 101.080,124.609 102.026 C 124.360 102.971,124.090 103.800,124.011 103.867 C 123.931 103.935,123.668 104.653,123.426 105.463 C 123.184 106.274,122.836 107.268,122.653 107.673 C 122.470 108.079,122.184 108.963,122.017 109.638 C 121.850 110.313,121.640 110.921,121.551 110.988 C 121.462 111.056,121.198 111.798,120.966 112.638 C 120.734 113.478,120.385 114.472,120.190 114.846 C 119.996 115.221,119.707 116.109,119.548 116.819 C 119.389 117.528,119.166 118.109,119.052 118.109 C 118.939 118.109,118.844 118.247,118.842 118.416 C 118.834 119.108,118.345 119.296,115.531 119.686 C 113.910 119.911,112.363 120.192,112.093 120.311 C 111.823 120.430,110.276 120.708,108.656 120.930 C 107.035 121.152,105.488 121.434,105.218 121.556 C 104.948 121.678,103.346 121.959,101.657 122.180 C 99.969 122.402,98.478 122.666,98.343 122.768 C 98.207 122.870,96.661 123.147,94.905 123.383 C 93.149 123.620,91.608 123.911,91.479 124.031 C 91.351 124.150,90.896 124.248,90.468 124.248 C 89.701 124.248,89.686 124.271,89.533 125.660 C 89.218 128.517,88.897 133.011,88.893 134.622 C 88.891 135.561,88.782 136.280,88.643 136.280 C 88.508 136.280,88.398 136.722,88.398 137.262 L 88.398 138.244 111.237 138.244 C 124.273 138.244,134.260 138.339,134.503 138.465 C 134.738 138.586,135.785 138.872,136.831 139.099 C 137.876 139.327,138.794 139.614,138.871 139.738 C 139.241 140.337,139.472 139.815,139.472 138.382 C 139.472 137.512,139.583 136.732,139.718 136.648 C 139.853 136.565,139.963 136.044,139.963 135.491 C 139.963 133.900,140.693 127.603,140.927 127.179 C 141.043 126.967,141.334 125.586,141.574 124.109 C 141.814 122.632,142.082 121.369,142.171 121.301 C 142.260 121.234,142.531 120.239,142.773 119.091 C 143.015 117.944,143.303 116.892,143.413 116.754 C 143.523 116.616,143.804 115.732,144.038 114.790 C 144.272 113.847,144.545 113.020,144.644 112.953 C 144.742 112.885,144.956 112.333,145.118 111.725 C 145.281 111.117,145.612 110.178,145.855 109.638 C 146.098 109.098,146.436 108.186,146.607 107.612 C 146.777 107.038,147.006 106.568,147.116 106.568 C 147.226 106.568,147.493 105.961,147.709 105.218 C 147.924 104.475,148.204 103.867,148.329 103.867 C 148.455 103.867,148.557 103.746,148.557 103.598 C 148.557 103.305,150.526 99.157,150.760 98.956 C 150.839 98.889,151.111 98.364,151.364 97.790 C 151.617 97.216,151.901 96.746,151.995 96.746 C 152.090 96.746,152.372 96.249,152.622 95.641 C 152.873 95.034,153.152 94.537,153.243 94.537 C 153.333 94.537,153.559 94.233,153.745 93.861 C 154.144 93.063,157.847 87.487,158.379 86.883 C 158.582 86.653,158.969 86.167,159.239 85.804 C 159.509 85.441,160.034 84.810,160.405 84.402 C 160.777 83.993,161.080 83.588,161.080 83.502 C 161.080 83.415,161.440 82.956,161.878 82.482 C 162.317 82.009,163.395 80.814,164.273 79.827 C 167.000 76.762,170.900 72.996,173.261 71.148 C 174.260 70.366,174.759 69.939,175.418 69.306 C 175.734 69.002,176.086 68.754,176.201 68.754 C 176.316 68.754,176.635 68.530,176.910 68.256 C 177.659 67.511,179.678 66.053,179.961 66.053 C 180.097 66.053,180.297 65.902,180.405 65.718 C 180.513 65.533,180.961 65.199,181.400 64.975 C 181.839 64.750,182.198 64.486,182.198 64.388 C 182.198 64.289,182.505 64.072,182.880 63.906 C 183.256 63.740,183.781 63.435,184.047 63.228 C 184.778 62.659,187.384 61.142,187.630 61.142 C 187.748 61.142,187.845 61.048,187.845 60.933 C 187.845 60.819,188.343 60.520,188.950 60.269 C 189.558 60.018,190.055 59.737,190.055 59.643 C 190.055 59.549,190.608 59.274,191.283 59.031 C 191.958 58.788,192.511 58.512,192.511 58.417 C 192.511 58.322,193.063 58.046,193.738 57.803 C 194.414 57.560,194.966 57.286,194.966 57.193 C 194.966 57.100,195.546 56.834,196.255 56.603 C 196.964 56.371,197.600 56.109,197.667 56.020 C 197.735 55.931,198.398 55.650,199.141 55.394 C 199.883 55.139,200.602 54.847,200.737 54.744 C 200.872 54.642,201.645 54.368,202.455 54.134 C 203.266 53.901,203.984 53.633,204.052 53.538 C 204.119 53.443,204.946 53.173,205.888 52.939 C 206.831 52.705,207.715 52.424,207.853 52.314 C 207.991 52.204,209.042 51.916,210.190 51.674 C 211.338 51.432,212.333 51.158,212.400 51.065 C 212.468 50.972,213.794 50.696,215.347 50.452 C 216.900 50.207,218.226 49.932,218.293 49.839 C 218.440 49.639,225.141 48.864,226.730 48.864 C 227.341 48.864,227.909 48.754,227.993 48.619 C 228.200 48.283,242.112 48.283,242.112 48.619 C 242.112 48.754,242.673 48.864,243.360 48.864 C 245.058 48.864,251.781 49.630,251.934 49.840 C 252.001 49.934,253.265 50.206,254.742 50.446 C 256.218 50.685,257.600 50.973,257.811 51.085 C 258.022 51.197,259.079 51.482,260.160 51.717 C 261.240 51.953,262.179 52.220,262.247 52.310 C 262.314 52.399,263.172 52.667,264.152 52.905 C 265.132 53.143,265.988 53.425,266.054 53.532 C 266.120 53.639,266.755 53.860,267.464 54.024 C 268.173 54.188,268.975 54.458,269.245 54.625 C 269.515 54.791,270.344 55.127,271.087 55.370 C 271.829 55.613,272.492 55.888,272.560 55.980 C 272.627 56.073,273.263 56.355,273.972 56.606 C 274.681 56.858,275.261 57.139,275.261 57.230 C 275.261 57.320,275.767 57.536,276.386 57.710 C 277.005 57.883,277.644 58.146,277.807 58.294 C 277.970 58.442,279.093 59.061,280.304 59.669 C 281.514 60.276,282.560 60.829,282.627 60.897 C 282.890 61.161,285.372 62.615,285.560 62.615 C 285.670 62.615,285.899 62.783,286.069 62.988 C 286.239 63.193,286.774 63.548,287.257 63.778 C 287.740 64.007,288.322 64.364,288.549 64.571 C 288.776 64.778,289.362 65.224,289.850 65.562 C 292.220 67.199,295.459 69.685,297.051 71.087 C 297.664 71.627,298.360 72.205,298.596 72.371 C 298.832 72.537,300.778 74.444,302.920 76.608 C 306.278 80.001,307.445 81.283,309.942 84.319 C 311.514 86.231,312.926 88.111,313.144 88.582 C 313.285 88.886,313.468 89.134,313.550 89.134 C 313.633 89.134,313.909 89.521,314.163 89.994 C 314.418 90.467,314.694 90.853,314.777 90.853 C 314.860 90.853,315.146 91.268,315.411 91.774 C 315.677 92.281,315.963 92.750,316.047 92.818 C 316.131 92.885,316.383 93.300,316.608 93.738 C 316.833 94.177,317.102 94.537,317.207 94.537 C 317.311 94.537,317.536 94.922,317.707 95.393 C 317.877 95.865,318.150 96.389,318.313 96.560 C 318.476 96.730,318.817 97.339,319.072 97.913 C 319.326 98.487,319.617 98.956,319.718 98.956 C 319.819 98.956,320.100 99.509,320.343 100.184 C 320.586 100.859,320.858 101.412,320.948 101.412 C 321.038 101.412,321.310 101.937,321.552 102.578 C 321.795 103.220,322.070 103.800,322.163 103.867 C 322.257 103.935,322.525 104.570,322.758 105.279 C 322.992 105.988,323.262 106.568,323.360 106.568 C 323.457 106.568,323.742 107.287,323.993 108.165 C 324.244 109.042,324.528 109.761,324.623 109.761 C 324.719 109.761,324.989 110.451,325.224 111.295 C 325.459 112.139,325.740 112.940,325.849 113.076 C 325.957 113.211,326.231 114.039,326.458 114.917 C 326.685 115.795,326.952 116.624,327.052 116.759 C 327.153 116.894,327.440 117.944,327.692 119.091 C 327.943 120.239,328.218 121.234,328.303 121.301 C 328.387 121.369,328.658 122.640,328.905 124.125 C 329.151 125.611,329.432 126.937,329.529 127.072 C 329.711 127.324,329.812 128.047,330.407 133.333 C 330.922 137.911,331.029 138.519,331.335 138.601 C 331.489 138.642,332.498 138.870,333.579 139.107 C 334.659 139.344,335.599 139.613,335.666 139.706 C 336.145 140.363,338.162 140.985,338.582 140.605 C 338.823 140.387,339.144 140.209,339.295 140.209 C 339.447 140.209,339.659 140.060,339.767 139.878 C 339.875 139.697,340.516 139.347,341.191 139.101 C 341.866 138.855,342.524 138.562,342.652 138.449 C 342.780 138.337,351.703 138.244,362.480 138.244 L 382.075 138.244 382.075 136.908 C 382.075 136.173,381.982 135.515,381.868 135.444 C 381.754 135.374,381.588 133.970,381.499 132.324 C 381.303 128.664,381.452 128.839,378.086 128.307 C 376.566 128.066,375.212 127.785,375.077 127.681 C 374.942 127.577,373.616 127.296,372.130 127.057 C 370.645 126.817,369.374 126.549,369.306 126.460 C 369.239 126.371,368.023 126.106,366.605 125.871 C 365.187 125.636,363.806 125.347,363.536 125.229 C 363.266 125.111,361.940 124.834,360.589 124.613 C 359.239 124.392,357.913 124.116,357.643 123.999 C 357.373 123.882,356.092 123.604,354.797 123.382 L 352.443 122.977 352.014 121.157 C 351.778 120.156,351.498 119.337,351.392 119.337 C 351.286 119.337,351.064 118.646,350.899 117.802 C 350.733 116.958,350.403 115.826,350.165 115.285 C 349.927 114.745,349.591 113.613,349.418 112.769 C 349.246 111.924,349.027 111.234,348.932 111.234 C 348.838 111.234,348.559 110.350,348.312 109.269 C 348.065 108.189,347.787 107.305,347.693 107.305 C 347.600 107.305,347.333 106.422,347.099 105.343 C 346.866 104.263,346.583 103.323,346.469 103.253 C 346.356 103.183,346.082 102.328,345.860 101.354 C 345.638 100.380,345.366 99.470,345.254 99.331 C 344.720 98.668,344.199 95.567,344.544 95.109 C 344.984 94.527,347.644 91.711,350.860 88.424 C 352.262 86.992,354.007 85.138,354.739 84.306 C 355.471 83.473,357.142 81.694,358.452 80.352 C 364.832 73.818,364.606 74.160,363.560 72.619 C 363.236 72.142,362.897 71.519,362.807 71.235 C 362.717 70.951,362.563 70.718,362.465 70.718 C 362.366 70.718,362.081 70.221,361.830 69.613 C 361.580 69.006,361.280 68.508,361.164 68.508 C 361.048 68.508,360.777 68.066,360.561 67.526 C 360.345 66.986,360.077 66.544,359.967 66.544 C 359.856 66.544,359.570 66.102,359.332 65.562 C 359.094 65.021,358.835 64.579,358.756 64.579 C 358.678 64.579,358.396 64.165,358.131 63.659 C 357.865 63.152,357.508 62.650,357.338 62.542 C 357.168 62.434,357.029 62.213,357.029 62.050 C 357.028 61.888,356.752 61.435,356.415 61.042 C 356.077 60.650,355.801 60.256,355.801 60.168 C 355.801 60.079,355.607 59.792,355.369 59.531 C 355.132 59.269,354.727 58.726,354.468 58.324 C 354.210 57.923,353.904 57.481,353.788 57.342 C 353.673 57.204,352.955 56.262,352.193 55.249 C 351.431 54.236,350.136 52.583,349.314 51.575 C 348.493 50.567,347.655 49.530,347.452 49.271 C 347.250 49.012,346.752 48.455,346.346 48.034 C 345.941 47.613,345.354 46.941,345.042 46.541 C 344.729 46.138,344.401 45.920,344.307 46.051 C 344.214 46.181,343.502 46.499,342.726 46.757 C 341.949 47.014,341.314 47.295,341.314 47.380 C 341.314 47.465,340.706 47.741,339.963 47.994 C 339.220 48.246,338.613 48.525,338.613 48.614 C 338.613 48.702,338.005 48.966,337.262 49.200 C 336.519 49.435,335.912 49.713,335.912 49.820 C 335.912 49.927,335.442 50.153,334.868 50.322 C 334.294 50.492,333.493 50.822,333.088 51.057 C 332.683 51.291,331.882 51.630,331.308 51.809 C 330.734 51.988,330.264 52.218,330.264 52.318 C 330.264 52.419,329.656 52.693,328.913 52.927 C 328.171 53.160,327.563 53.427,327.563 53.519 C 327.563 53.610,326.955 53.877,326.212 54.111 C 325.470 54.345,324.862 54.630,324.862 54.743 C 324.862 54.857,324.558 55.024,324.187 55.114 C 323.556 55.268,322.040 55.935,319.088 57.357 C 318.411 57.683,317.789 57.950,317.706 57.950 C 317.587 57.950,314.783 55.895,313.444 54.827 C 313.309 54.719,312.870 54.420,312.468 54.161 C 312.066 53.903,311.521 53.490,311.255 53.242 C 310.990 52.995,310.699 52.793,310.610 52.793 C 310.520 52.793,310.126 52.520,309.735 52.185 C 308.416 51.058,308.281 50.953,307.553 50.480 C 307.153 50.221,306.610 49.806,306.344 49.559 C 306.079 49.312,305.788 49.110,305.699 49.110 C 305.609 49.110,305.215 48.836,304.824 48.502 C 303.505 47.375,303.370 47.269,302.642 46.797 C 302.242 46.537,301.699 46.123,301.433 45.876 C 301.168 45.629,300.877 45.427,300.788 45.427 C 300.698 45.427,300.340 45.178,299.992 44.874 C 299.644 44.570,298.827 43.935,298.176 43.462 C 297.525 42.990,296.779 42.411,296.519 42.176 C 296.259 41.941,295.872 41.694,295.659 41.626 C 294.671 41.312,294.497 36.560,295.398 34.500 C 295.516 34.230,295.806 32.075,296.043 29.711 C 296.279 27.348,296.544 25.359,296.631 25.292 C 296.719 25.224,296.981 23.235,297.215 20.872 C 297.448 18.508,297.736 16.394,297.853 16.172 C 297.971 15.951,298.143 14.829,298.237 13.678 L 298.406 11.587 296.717 10.800 C 293.498 9.300,291.218 8.305,289.994 7.864 C 289.521 7.693,288.666 7.346,288.094 7.092 C 287.521 6.838,286.935 6.630,286.791 6.630 C 286.647 6.630,286.042 6.408,285.446 6.136 C 284.850 5.865,283.806 5.514,283.127 5.357 C 282.447 5.201,281.891 4.993,281.891 4.895 C 281.891 4.798,281.090 4.526,280.110 4.290 C 279.131 4.054,278.220 3.781,278.085 3.683 C 277.950 3.585,277.010 3.315,275.998 3.084 C 274.985 2.853,273.935 2.560,273.665 2.434 C 273.395 2.308,272.234 1.991,271.087 1.729 C 269.939 1.467,268.504 1.131,267.899 0.981 C 267.118 0.788,266.773 0.785,266.711 0.973 C 266.662 1.118,266.484 1.375,266.314 1.545 C 266.144 1.715,265.799 2.293,265.547 2.830 C 265.295 3.367,264.947 3.952,264.773 4.130 C 264.599 4.309,264.457 4.565,264.457 4.700 C 264.457 4.835,264.125 5.427,263.720 6.016 C 263.315 6.605,262.983 7.197,262.983 7.332 C 262.983 7.467,262.841 7.723,262.667 7.901 C 262.493 8.080,262.159 8.613,261.924 9.085 C 261.689 9.558,261.066 10.633,260.539 11.474 C 260.013 12.315,259.511 13.227,259.425 13.500 C 259.338 13.773,259.175 13.996,259.062 13.996 C 258.950 13.996,258.653 14.493,258.404 15.100 C 258.154 15.708,257.872 16.205,257.777 16.205 C 257.682 16.206,257.375 16.676,257.094 17.250 C 256.813 17.824,256.315 18.735,255.986 19.276 C 255.303 20.398,254.368 22.022,253.580 23.450 C 253.282 23.990,252.973 24.487,252.892 24.555 C 252.812 24.622,252.588 25.009,252.396 25.414 L 252.045 26.151 245.421 26.093 C 241.778 26.061,235.302 25.966,231.030 25.881 L 223.264 25.728 222.368 23.975 C 221.107 21.507,220.315 20.053,220.076 19.767 C 219.964 19.632,219.719 19.134,219.533 18.662 C 219.347 18.189,219.063 17.637,218.901 17.434 C 218.739 17.231,218.405 16.596,218.157 16.022 C 217.910 15.448,217.641 14.979,217.559 14.979 C 217.477 14.979,217.264 14.564,217.085 14.058 C 216.906 13.551,216.630 12.971,216.471 12.769 C 216.312 12.566,215.966 11.958,215.703 11.418 C 215.440 10.878,215.157 10.381,215.075 10.313 C 214.993 10.246,214.694 9.693,214.411 9.085 C 213.797 7.768,212.001 4.399,211.728 4.052 C 211.621 3.917,211.326 3.336,211.071 2.762 C 210.816 2.188,210.535 1.719,210.448 1.719 C 210.360 1.719,210.149 1.332,209.978 0.859 C 209.601 -0.184,208.966 -0.224,204.665 0.521 M23.837 128.312 C 22.969 128.501,22.196 128.753,22.118 128.874 C 22.040 128.994,21.717 129.174,21.399 129.273 C 20.040 129.698,17.188 133.518,17.188 134.914 C 17.188 135.125,17.097 135.298,16.985 135.298 C 16.873 135.298,16.586 136.209,16.347 137.324 C 16.109 138.438,15.827 139.460,15.721 139.595 C 15.614 139.730,15.329 140.780,15.087 141.928 C 14.845 143.076,14.576 144.070,14.489 144.138 C 14.403 144.205,14.128 145.255,13.879 146.470 C 13.630 147.686,13.353 148.735,13.263 148.803 C 13.174 148.870,12.902 149.865,12.660 151.013 C 12.418 152.161,12.140 153.211,12.044 153.346 C 11.947 153.481,11.733 154.254,11.568 155.064 C 11.403 155.875,11.168 156.759,11.045 157.029 C 10.829 157.502,10.406 159.098,9.319 163.536 C 9.038 164.684,8.713 165.801,8.598 166.018 C 8.482 166.236,8.191 167.341,7.952 168.474 C 7.712 169.607,7.445 170.589,7.358 170.657 C 7.271 170.724,6.996 171.774,6.747 172.990 C 6.498 174.205,6.218 175.255,6.125 175.322 C 6.032 175.390,5.759 176.384,5.518 177.532 C 5.277 178.680,4.999 179.730,4.900 179.865 C 4.800 180.000,4.527 180.994,4.292 182.075 C 4.058 183.155,3.781 184.150,3.677 184.285 C 3.574 184.420,3.300 185.470,3.069 186.618 C 2.839 187.766,2.565 188.815,2.461 188.950 C 2.358 189.085,2.087 190.080,1.860 191.160 C 1.633 192.241,1.345 193.346,1.219 193.616 C -0.423 197.142,-0.335 204.393,1.357 205.036 C 1.691 205.163,1.964 205.365,1.964 205.485 C 1.964 206.207,5.050 206.282,31.786 206.211 L 58.785 206.139 59.146 204.420 C 59.344 203.475,59.578 202.646,59.665 202.578 C 59.753 202.511,60.028 201.461,60.277 200.246 C 60.526 199.030,60.801 197.980,60.888 197.913 C 60.975 197.845,61.244 196.851,61.486 195.703 C 61.728 194.555,62.013 193.505,62.121 193.370 C 62.228 193.235,62.451 192.462,62.616 191.651 C 62.781 190.841,63.015 189.989,63.137 189.758 C 63.259 189.527,63.535 188.477,63.750 187.425 C 63.966 186.373,64.228 185.402,64.332 185.267 C 64.436 185.132,64.718 184.082,64.957 182.934 C 65.196 181.786,65.473 180.737,65.571 180.602 C 65.669 180.467,65.945 179.417,66.185 178.269 C 66.424 177.121,66.701 176.071,66.801 175.936 C 66.900 175.801,67.173 174.807,67.408 173.726 C 67.643 172.646,67.918 171.651,68.020 171.516 C 68.122 171.381,68.401 170.331,68.640 169.184 C 68.880 168.036,69.158 166.986,69.260 166.851 C 69.361 166.716,69.642 165.666,69.885 164.518 C 70.128 163.370,70.415 162.394,70.522 162.349 C 70.630 162.304,70.718 161.944,70.718 161.549 L 70.718 160.831 53.970 160.895 L 37.221 160.958 36.910 162.308 C 36.233 165.256,35.552 167.853,35.357 168.228 C 35.244 168.446,34.956 169.551,34.717 170.684 C 34.477 171.817,34.178 172.815,34.052 172.901 C 33.217 173.472,34.495 173.603,40.898 173.603 C 46.724 173.603,47.637 173.653,47.637 173.972 C 47.637 174.174,47.547 174.340,47.438 174.340 C 47.329 174.340,47.034 175.362,46.783 176.611 C 46.532 177.861,46.247 178.938,46.150 179.006 C 46.052 179.073,45.783 180.068,45.551 181.215 C 45.319 182.363,45.033 183.421,44.916 183.566 C 44.798 183.712,44.532 184.651,44.326 185.654 C 44.119 186.656,43.851 187.698,43.729 187.968 C 43.607 188.238,43.445 188.653,43.369 188.889 C 43.199 189.423,24.494 189.562,23.495 189.036 C 22.601 188.566,22.395 187.167,23.085 186.249 C 23.186 186.114,23.465 185.064,23.705 183.917 C 23.944 182.769,24.220 181.719,24.319 181.584 C 24.417 181.449,24.695 180.399,24.937 179.251 C 25.180 178.103,25.451 177.109,25.541 177.041 C 25.630 176.974,25.907 175.924,26.157 174.708 C 26.406 173.493,26.680 172.443,26.767 172.376 C 26.853 172.308,27.122 171.314,27.365 170.166 C 27.607 169.018,27.889 167.968,27.993 167.833 C 28.096 167.698,28.379 166.648,28.621 165.500 C 28.863 164.352,29.134 163.358,29.224 163.290 C 29.314 163.223,29.591 162.173,29.840 160.958 C 30.089 159.742,30.367 158.692,30.458 158.625 C 30.549 158.557,30.829 157.480,31.080 156.231 C 31.330 154.982,31.609 153.959,31.698 153.959 C 31.787 153.959,32.057 152.937,32.297 151.688 C 32.538 150.439,32.812 149.362,32.906 149.294 C 33.001 149.227,33.214 148.597,33.380 147.896 C 34.114 144.801,33.588 144.887,51.818 144.880 L 66.925 144.874 68.515 142.774 C 69.389 141.619,70.252 140.513,70.433 140.315 C 70.613 140.117,71.191 139.377,71.715 138.670 C 72.240 137.963,72.866 137.139,73.106 136.838 C 73.346 136.538,73.735 136.040,73.970 135.733 C 75.560 133.659,77.665 130.912,78.025 130.439 C 78.260 130.129,78.702 129.588,79.006 129.236 C 80.201 127.851,81.823 127.930,52.486 127.951 C 30.319 127.967,25.129 128.032,23.837 128.312 M255.997 130.148 C 255.750 131.368,255.467 132.415,255.369 132.475 C 255.271 132.536,254.990 133.555,254.745 134.740 C 254.500 135.924,254.221 136.949,254.126 137.017 C 254.031 137.084,253.763 138.079,253.532 139.227 C 253.300 140.374,253.023 141.424,252.916 141.559 C 252.809 141.694,252.533 142.736,252.303 143.874 C 252.072 145.012,251.758 146.145,251.604 146.391 C 251.338 146.816,250.557 146.839,235.791 146.839 C 225.599 146.839,220.258 146.923,220.258 147.084 C 220.258 147.219,219.891 147.330,219.443 147.330 C 218.487 147.330,216.181 147.977,215.661 148.392 C 215.194 148.765,213.098 150.859,212.732 151.321 C 212.159 152.041,211.184 154.371,210.908 155.681 C 210.751 156.422,210.525 157.215,210.407 157.442 C 210.288 157.670,210.024 158.664,209.821 159.652 C 209.617 160.640,209.345 161.670,209.216 161.940 C 209.086 162.210,208.760 163.315,208.491 164.395 C 208.221 165.476,207.768 167.299,207.484 168.447 C 207.199 169.595,206.877 170.702,206.769 170.908 C 206.661 171.114,206.375 172.219,206.133 173.364 C 205.892 174.508,205.611 175.556,205.510 175.691 C 205.409 175.826,205.128 176.875,204.887 178.023 C 204.645 179.171,204.376 180.166,204.289 180.233 C 204.202 180.301,203.927 181.351,203.678 182.566 C 203.429 183.781,203.155 184.831,203.069 184.899 C 202.984 184.966,202.721 185.905,202.485 186.986 C 202.249 188.066,201.961 189.128,201.845 189.346 C 201.730 189.563,201.439 190.668,201.199 191.801 C 200.960 192.934,200.686 193.917,200.590 193.984 C 200.495 194.052,200.225 195.101,199.990 196.317 C 199.755 197.532,199.468 198.632,199.352 198.760 C 198.629 199.558,199.685 204.788,200.568 204.788 C 200.677 204.788,201.002 205.007,201.289 205.275 C 202.298 206.215,203.293 206.249,229.731 206.256 L 255.533 206.262 255.967 204.236 C 256.206 203.122,256.488 202.099,256.594 201.964 C 256.700 201.829,256.985 200.780,257.227 199.632 C 257.469 198.484,257.738 197.489,257.825 197.422 C 257.912 197.354,258.186 196.304,258.435 195.089 C 258.684 193.874,258.963 192.824,259.055 192.756 C 259.146 192.689,259.425 191.639,259.674 190.424 C 259.923 189.208,260.199 188.158,260.288 188.091 C 260.376 188.023,260.653 186.974,260.902 185.758 C 261.151 184.543,261.424 183.493,261.508 183.425 C 261.593 183.358,261.812 182.640,261.995 181.829 C 262.179 181.019,262.408 180.246,262.505 180.110 C 262.601 179.975,262.876 178.926,263.115 177.778 C 263.355 176.630,263.632 175.580,263.731 175.445 C 263.831 175.310,264.096 174.316,264.320 173.235 C 264.544 172.155,264.824 171.093,264.941 170.875 C 265.059 170.658,265.351 169.553,265.590 168.420 C 265.830 167.287,266.101 166.304,266.192 166.237 C 266.283 166.169,266.555 165.175,266.796 164.027 C 267.037 162.879,267.315 161.829,267.415 161.694 C 267.514 161.559,267.783 160.565,268.012 159.484 C 268.241 158.404,268.570 157.188,268.743 156.783 C 268.916 156.378,269.194 155.328,269.359 154.451 C 269.524 153.573,269.748 152.744,269.856 152.609 C 269.964 152.474,270.242 151.424,270.473 150.276 C 270.704 149.128,270.978 148.079,271.083 147.944 C 271.188 147.808,271.470 146.759,271.710 145.611 C 271.949 144.463,272.226 143.413,272.326 143.278 C 272.425 143.143,272.698 142.149,272.933 141.068 C 273.168 139.988,273.443 138.993,273.545 138.858 C 273.647 138.723,273.926 137.673,274.165 136.525 C 274.405 135.378,274.681 134.328,274.779 134.193 C 274.877 134.058,275.156 133.008,275.398 131.860 C 275.640 130.712,275.912 129.718,276.002 129.650 C 276.092 129.583,276.236 129.168,276.321 128.729 L 276.476 127.931 266.462 127.931 L 256.447 127.931 255.997 130.148 M89.033 147.049 C 88.962 147.165,88.340 147.326,87.651 147.408 C 86.291 147.569,84.715 148.065,84.715 148.331 C 84.715 148.423,84.406 148.625,84.030 148.781 C 83.653 148.938,83.073 149.406,82.741 149.822 C 82.408 150.239,81.888 150.887,81.584 151.261 C 81.280 151.636,81.031 152.007,81.031 152.085 C 81.031 152.162,80.765 152.809,80.440 153.522 C 80.115 154.236,79.711 155.537,79.541 156.415 C 79.372 157.293,79.162 158.066,79.075 158.134 C 78.987 158.201,78.710 159.196,78.459 160.344 C 78.208 161.492,77.921 162.541,77.821 162.676 C 77.722 162.812,77.443 163.861,77.201 165.009 C 76.959 166.157,76.690 167.152,76.603 167.219 C 76.516 167.287,76.241 168.336,75.992 169.552 C 75.743 170.767,75.461 171.817,75.366 171.885 C 75.271 171.952,75.003 172.947,74.772 174.095 C 74.540 175.242,74.265 176.292,74.162 176.427 C 74.058 176.562,73.781 177.557,73.546 178.637 C 73.311 179.718,73.019 180.791,72.897 181.022 C 72.775 181.253,72.499 182.302,72.284 183.354 C 72.068 184.406,71.807 185.378,71.702 185.513 C 71.598 185.648,71.315 186.697,71.072 187.845 C 70.830 188.993,70.561 189.988,70.475 190.055 C 70.388 190.123,70.113 191.172,69.864 192.388 C 69.615 193.603,69.337 194.653,69.246 194.721 C 68.904 194.975,68.262 199.096,68.263 201.035 C 68.263 204.035,68.948 205.087,71.455 205.934 C 73.615 206.663,119.962 206.306,120.565 205.555 C 120.632 205.471,121.102 205.211,121.608 204.976 C 122.115 204.742,122.529 204.438,122.529 204.301 C 122.529 204.164,122.682 204.052,122.868 204.052 C 123.661 204.052,125.861 200.476,126.145 198.725 C 126.217 198.278,126.359 197.913,126.459 197.913 C 126.559 197.913,126.839 196.946,127.080 195.764 C 127.322 194.583,127.600 193.505,127.699 193.370 C 127.797 193.235,128.070 192.241,128.304 191.160 C 128.539 190.080,128.816 189.085,128.919 188.950 C 129.023 188.815,129.296 187.766,129.527 186.618 C 129.758 185.470,130.033 184.420,130.138 184.285 C 130.243 184.150,130.527 183.100,130.769 181.952 C 131.011 180.804,131.279 179.810,131.364 179.742 C 131.449 179.675,131.717 178.680,131.958 177.532 C 132.200 176.384,132.485 175.335,132.591 175.200 C 132.698 175.064,132.983 174.015,133.225 172.867 C 133.467 171.719,133.736 170.724,133.822 170.657 C 133.909 170.589,134.184 169.540,134.433 168.324 C 134.682 167.109,134.961 166.059,135.052 165.991 C 135.144 165.924,135.422 164.874,135.672 163.659 C 135.921 162.443,136.197 161.393,136.285 161.326 C 136.374 161.258,136.650 160.209,136.899 158.993 C 137.148 157.778,137.432 156.728,137.529 156.661 C 137.786 156.482,138.245 153.810,138.243 152.502 C 138.239 149.421,136.391 147.338,133.655 147.331 C 133.359 147.330,133.048 147.219,132.965 147.084 C 132.775 146.777,89.223 146.742,89.033 147.049 M154.573 147.084 C 154.490 147.219,154.045 147.330,153.585 147.330 C 152.581 147.330,150.574 147.979,150.095 148.458 C 149.905 148.648,149.663 148.803,149.556 148.803 C 148.992 148.803,146.862 151.414,146.352 152.732 C 146.169 153.204,145.940 153.702,145.842 153.837 C 145.744 153.972,145.472 154.966,145.238 156.047 C 145.003 157.127,144.726 158.122,144.623 158.257 C 144.519 158.392,144.246 159.441,144.015 160.589 C 143.784 161.737,143.508 162.787,143.402 162.922 C 143.296 163.057,143.017 164.052,142.782 165.132 C 142.547 166.212,142.271 167.207,142.167 167.342 C 142.064 167.477,141.790 168.527,141.559 169.675 C 141.328 170.823,141.054 171.872,140.949 172.007 C 140.844 172.142,140.559 173.192,140.317 174.340 C 140.075 175.488,139.806 176.483,139.720 176.550 C 139.633 176.618,139.358 177.667,139.109 178.883 C 138.860 180.098,138.585 181.148,138.498 181.215 C 138.410 181.283,138.131 182.277,137.876 183.425 C 137.621 184.573,137.345 185.568,137.263 185.635 C 137.180 185.703,136.931 186.532,136.709 187.477 C 135.882 191.004,135.260 193.381,135.069 193.744 C 134.960 193.950,134.674 195.055,134.433 196.200 C 134.191 197.345,133.913 198.392,133.815 198.527 C 133.717 198.662,133.455 199.601,133.234 200.614 C 133.013 201.627,132.733 202.676,132.612 202.947 C 132.376 203.474,131.860 205.573,131.860 206.005 C 131.860 206.188,134.856 206.248,141.743 206.203 L 151.627 206.139 151.704 205.463 C 151.747 205.092,151.866 204.788,151.969 204.788 C 152.072 204.788,152.363 203.738,152.615 202.455 C 152.868 201.172,153.144 200.123,153.229 200.123 C 153.315 200.123,153.591 199.073,153.843 197.790 C 154.095 196.507,154.373 195.457,154.461 195.457 C 154.548 195.457,154.818 194.490,155.061 193.309 C 155.304 192.127,155.587 191.050,155.690 190.915 C 155.793 190.780,156.075 189.730,156.317 188.582 C 156.558 187.434,156.833 186.440,156.926 186.372 C 157.020 186.304,157.286 185.310,157.518 184.162 C 157.750 183.014,158.027 181.964,158.134 181.829 C 158.241 181.694,158.517 180.645,158.748 179.497 C 158.979 178.349,159.255 177.299,159.362 177.164 C 159.468 177.029,159.745 175.979,159.975 174.831 C 160.206 173.683,160.481 172.634,160.586 172.498 C 160.691 172.363,160.958 171.424,161.180 170.411 C 161.401 169.398,161.686 168.349,161.812 168.079 C 161.939 167.808,162.159 167.126,162.303 166.562 C 162.462 165.934,162.854 165.291,163.314 164.904 L 164.065 164.273 178.312 164.273 L 192.560 164.273 193.333 163.465 C 193.759 163.021,194.328 162.335,194.598 161.942 C 194.868 161.548,195.393 160.875,195.764 160.446 C 196.136 160.016,196.440 159.545,196.440 159.399 C 196.440 159.253,196.661 159.015,196.931 158.870 C 197.201 158.726,197.422 158.491,197.422 158.349 C 197.422 158.206,198.085 157.272,198.895 156.273 C 199.705 155.273,200.368 154.370,200.368 154.267 C 200.368 154.163,200.589 153.940,200.859 153.771 C 201.130 153.602,201.351 153.340,201.351 153.188 C 201.351 153.035,201.599 152.663,201.903 152.359 C 202.207 152.056,202.842 151.270,203.315 150.612 C 203.788 149.955,204.368 149.203,204.604 148.941 C 204.840 148.679,205.034 148.383,205.034 148.283 C 205.034 148.183,205.207 147.929,205.418 147.717 C 205.629 147.506,205.733 147.222,205.649 147.086 C 205.438 146.745,154.784 146.743,154.573 147.084 M285.820 147.050 C 285.820 147.166,285.232 147.322,284.515 147.396 C 283.286 147.522,282.313 147.868,280.924 148.671 C 279.899 149.263,278.057 151.454,277.717 152.484 C 277.538 153.026,277.309 153.468,277.207 153.468 C 277.105 153.468,276.823 154.325,276.581 155.371 C 276.339 156.418,276.071 157.330,275.986 157.397 C 275.901 157.465,275.627 158.514,275.378 159.730 C 275.129 160.945,274.853 161.995,274.764 162.063 C 274.676 162.130,274.400 163.180,274.150 164.395 C 273.901 165.611,273.629 166.661,273.544 166.728 C 273.460 166.796,273.185 167.790,272.934 168.938 C 272.683 170.086,272.396 171.136,272.296 171.271 C 272.197 171.406,271.918 172.455,271.676 173.603 C 271.434 174.751,271.160 175.746,271.066 175.813 C 270.973 175.881,270.706 176.875,270.474 178.023 C 270.243 179.171,269.966 180.221,269.859 180.356 C 269.752 180.491,269.476 181.541,269.245 182.689 C 269.014 183.837,268.738 184.886,268.632 185.021 C 268.526 185.157,268.260 186.141,268.041 187.210 C 267.822 188.278,267.546 189.272,267.426 189.420 C 267.307 189.567,267.020 190.626,266.789 191.774 C 266.559 192.922,266.284 193.972,266.179 194.107 C 266.074 194.242,265.801 195.292,265.572 196.440 C 265.343 197.587,265.054 198.719,264.929 198.953 C 264.641 199.495,264.631 202.578,264.917 202.578 C 265.035 202.578,265.198 202.906,265.278 203.307 C 265.516 204.496,266.949 205.678,268.578 206.027 C 269.327 206.188,277.947 206.252,292.941 206.207 L 316.145 206.139 317.741 205.304 C 319.430 204.421,321.213 202.845,321.669 201.834 C 321.819 201.501,322.150 200.841,322.405 200.368 C 322.659 199.896,322.942 199.039,323.033 198.465 C 323.124 197.891,323.282 197.422,323.383 197.422 C 323.484 197.422,323.758 196.455,323.992 195.273 C 324.226 194.091,324.506 193.014,324.614 192.879 C 324.722 192.744,324.999 191.694,325.230 190.546 C 325.461 189.398,325.737 188.349,325.843 188.214 C 325.949 188.079,326.228 187.084,326.463 186.004 C 326.698 184.923,326.973 183.929,327.075 183.794 C 327.176 183.659,327.455 182.609,327.695 181.461 C 327.934 180.313,328.211 179.263,328.309 179.128 C 328.407 178.993,328.685 177.944,328.928 176.796 C 329.170 175.648,329.441 174.653,329.531 174.586 C 329.620 174.518,329.898 173.468,330.147 172.253 C 330.396 171.037,330.670 169.988,330.757 169.920 C 330.844 169.853,331.113 168.858,331.355 167.710 C 331.597 166.562,331.882 165.513,331.988 165.378 C 332.094 165.242,332.379 164.193,332.621 163.045 C 332.863 161.897,333.132 160.902,333.219 160.835 C 333.306 160.767,333.581 159.718,333.830 158.502 C 334.079 157.287,334.393 156.218,334.528 156.127 C 334.952 155.843,335.049 150.431,334.638 150.016 C 334.445 149.821,334.219 149.481,334.135 149.259 C 333.834 148.463,332.318 147.563,331.021 147.409 C 330.327 147.327,329.700 147.165,329.628 147.049 C 329.458 146.773,285.820 146.774,285.820 147.050 M344.409 147.227 C 344.327 147.441,344.260 147.827,344.260 148.086 C 344.260 148.345,344.167 148.557,344.053 148.557 C 343.939 148.557,343.647 149.524,343.404 150.706 C 343.161 151.888,342.878 152.965,342.775 153.100 C 342.673 153.235,342.391 154.285,342.149 155.433 C 341.907 156.581,341.632 157.575,341.539 157.643 C 341.445 157.710,341.179 158.705,340.947 159.853 C 340.715 161.001,340.438 162.050,340.331 162.185 C 340.225 162.320,339.948 163.370,339.716 164.518 C 339.484 165.666,339.218 166.661,339.124 166.728 C 339.031 166.796,338.756 167.790,338.514 168.938 C 338.272 170.086,337.986 171.136,337.878 171.271 C 337.770 171.406,337.493 172.447,337.263 173.585 C 337.032 174.723,336.745 175.828,336.625 176.041 C 336.505 176.253,336.244 177.090,336.046 177.901 C 335.161 181.521,334.862 182.660,334.438 184.039 C 334.188 184.850,333.853 186.169,333.693 186.971 C 333.533 187.774,333.306 188.602,333.188 188.813 C 333.070 189.023,332.755 190.080,332.489 191.160 C 332.222 192.241,331.771 194.064,331.486 195.212 C 331.201 196.360,330.880 197.467,330.772 197.673 C 330.663 197.879,330.375 198.984,330.131 200.129 C 329.886 201.273,329.618 202.265,329.533 202.333 C 329.329 202.496,328.791 204.913,328.791 205.666 L 328.791 206.262 338.598 206.262 L 348.405 206.262 348.570 205.157 C 348.661 204.549,348.810 204.052,348.901 204.052 C 348.992 204.052,349.261 203.140,349.499 202.026 C 349.737 200.912,350.028 199.822,350.146 199.605 C 350.264 199.387,350.556 198.282,350.796 197.149 C 351.035 196.016,351.308 195.034,351.402 194.966 C 351.495 194.899,351.761 193.904,351.993 192.756 C 352.225 191.608,352.502 190.559,352.609 190.424 C 352.716 190.289,352.992 189.239,353.223 188.091 C 353.454 186.943,353.727 185.893,353.831 185.758 C 353.934 185.623,354.211 184.629,354.446 183.548 C 354.680 182.468,354.958 181.473,355.062 181.338 C 355.167 181.203,355.450 180.153,355.693 179.006 C 355.935 177.858,356.204 176.863,356.290 176.796 C 356.377 176.728,356.651 175.678,356.901 174.463 C 357.150 173.247,357.428 172.198,357.520 172.130 C 357.612 172.063,357.890 171.013,358.139 169.797 C 358.388 168.582,358.664 167.532,358.751 167.465 C 358.839 167.397,359.055 166.651,359.231 165.807 L 359.551 164.273 368.349 164.273 C 376.964 164.273,377.152 164.283,377.416 164.775 C 377.683 165.275,377.331 167.733,376.907 168.324 C 376.810 168.459,376.532 169.509,376.290 170.657 C 376.048 171.805,375.780 172.799,375.695 172.867 C 375.610 172.934,375.343 173.929,375.101 175.077 C 374.859 176.225,374.580 177.274,374.481 177.409 C 374.381 177.545,374.097 178.594,373.849 179.742 C 373.601 180.890,373.319 181.940,373.223 182.075 C 373.126 182.210,372.849 183.260,372.607 184.408 C 372.365 185.556,372.093 186.550,372.004 186.618 C 371.914 186.685,371.637 187.735,371.388 188.950 C 371.139 190.166,370.863 191.215,370.774 191.283 C 370.686 191.351,370.409 192.400,370.160 193.616 C 369.911 194.831,369.638 195.881,369.554 195.948 C 369.470 196.016,369.195 197.010,368.944 198.158 C 368.693 199.306,368.406 200.356,368.306 200.491 C 368.207 200.626,367.927 201.676,367.684 202.824 C 367.441 203.972,367.154 204.948,367.047 204.993 C 366.939 205.038,366.851 205.342,366.851 205.668 L 366.851 206.262 376.568 206.262 C 387.574 206.262,386.733 206.436,387.223 204.052 C 387.403 203.174,387.632 202.345,387.733 202.210 C 387.833 202.075,388.098 201.080,388.323 200.000 C 388.547 198.920,388.827 197.858,388.944 197.640 C 389.061 197.423,389.353 196.318,389.593 195.185 C 389.832 194.052,390.096 193.069,390.179 193.002 C 390.261 192.934,390.535 191.940,390.786 190.792 C 391.037 189.644,391.323 188.594,391.420 188.459 C 391.518 188.324,391.785 187.330,392.014 186.249 C 392.243 185.169,392.572 183.953,392.746 183.548 C 392.919 183.143,393.196 182.093,393.361 181.215 C 393.527 180.338,393.750 179.509,393.859 179.374 C 393.967 179.239,394.244 178.189,394.475 177.041 C 394.706 175.893,394.981 174.843,395.086 174.708 C 395.191 174.573,395.473 173.524,395.712 172.376 C 395.952 171.228,396.229 170.178,396.328 170.043 C 396.427 169.908,396.701 168.913,396.936 167.833 C 397.170 166.753,397.444 165.758,397.545 165.623 C 397.645 165.488,397.913 164.494,398.140 163.413 C 398.367 162.333,398.655 161.228,398.781 160.958 C 399.453 159.516,400.000 155.793,399.999 152.673 L 399.998 149.417 399.260 148.630 C 398.548 147.870,397.263 147.334,396.147 147.331 C 395.851 147.330,395.541 147.219,395.457 147.084 C 395.169 146.618,344.589 146.759,344.409 147.227 M114.929 164.656 C 115.261 165.056,114.614 169.530,114.186 169.794 C 114.082 169.858,113.804 170.907,113.568 172.125 C 113.331 173.343,113.058 174.340,112.962 174.340 C 112.865 174.340,112.646 175.141,112.475 176.120 C 112.304 177.099,112.017 178.232,111.838 178.637 C 111.659 179.042,111.383 180.037,111.223 180.847 C 111.064 181.657,110.835 182.507,110.715 182.734 C 110.595 182.961,110.328 183.952,110.121 184.936 C 109.643 187.208,108.795 188.688,107.764 189.047 C 106.743 189.403,92.486 189.421,91.825 189.067 C 91.173 188.718,90.759 187.888,91.056 187.523 C 91.186 187.362,91.482 186.292,91.713 185.144 C 91.944 183.996,92.218 182.947,92.323 182.812 C 92.428 182.676,92.710 181.627,92.950 180.479 C 93.189 179.331,93.465 178.281,93.564 178.146 C 93.662 178.011,93.938 176.961,94.177 175.813 C 94.417 174.665,94.692 173.616,94.789 173.481 C 94.885 173.346,95.156 172.351,95.391 171.271 C 95.626 170.190,95.898 169.196,95.996 169.061 C 96.094 168.926,96.316 168.155,96.490 167.349 C 96.722 166.273,97.020 165.668,97.611 165.078 L 98.416 164.273 106.514 164.273 C 113.550 164.273,114.653 164.323,114.929 164.656 M246.884 164.460 C 246.740 164.560,246.418 165.635,246.169 166.851 C 245.920 168.066,245.644 169.116,245.557 169.184 C 245.470 169.251,245.193 170.246,244.941 171.393 C 244.690 172.541,244.403 173.591,244.304 173.726 C 244.204 173.861,243.925 174.911,243.683 176.059 C 243.442 177.207,243.174 178.201,243.089 178.269 C 243.004 178.336,242.736 179.331,242.494 180.479 C 242.252 181.627,241.968 182.676,241.863 182.812 C 241.758 182.947,241.483 183.996,241.252 185.144 C 241.021 186.292,240.746 187.342,240.641 187.477 C 240.536 187.612,240.373 188.082,240.279 188.521 L 240.108 189.319 231.791 189.319 C 222.238 189.319,222.222 189.316,222.222 187.683 C 222.222 187.097,222.314 186.618,222.426 186.618 C 222.538 186.618,222.836 185.568,223.088 184.285 C 223.340 183.002,223.617 181.952,223.702 181.952 C 223.787 181.952,224.064 180.902,224.316 179.619 C 224.568 178.336,224.846 177.287,224.933 177.287 C 225.021 177.287,225.291 176.320,225.534 175.138 C 225.777 173.956,226.060 172.879,226.163 172.744 C 226.265 172.609,226.547 171.559,226.789 170.411 C 227.031 169.263,227.302 168.269,227.391 168.201 C 227.480 168.134,227.632 167.654,227.727 167.136 C 228.262 164.228,228.043 164.286,238.428 164.283 C 243.223 164.281,247.028 164.361,246.884 164.460 M311.607 164.646 C 311.947 165.057,311.779 167.809,311.383 168.299 C 311.263 168.448,310.977 169.454,310.748 170.534 C 310.519 171.614,310.191 172.830,310.018 173.235 C 309.846 173.640,309.562 174.690,309.389 175.568 C 309.215 176.446,308.991 177.274,308.891 177.409 C 308.791 177.545,308.526 178.539,308.301 179.619 C 308.077 180.700,307.797 181.762,307.680 181.979 C 307.563 182.197,307.271 183.302,307.031 184.435 C 306.791 185.568,306.522 186.550,306.432 186.618 C 306.343 186.685,306.122 187.151,305.943 187.653 C 305.379 189.228,304.856 189.319,296.305 189.319 C 287.994 189.319,287.784 189.280,287.784 187.758 C 287.784 187.320,287.881 186.856,288.000 186.728 C 288.119 186.600,288.401 185.611,288.627 184.530 C 288.853 183.450,289.138 182.345,289.261 182.075 C 289.384 181.805,289.705 180.700,289.975 179.619 C 290.244 178.539,290.699 176.716,290.986 175.568 C 291.273 174.420,291.607 173.260,291.728 172.990 C 291.848 172.719,292.122 171.670,292.336 170.657 C 292.549 169.644,292.820 168.594,292.936 168.324 C 293.053 168.054,293.331 167.218,293.555 166.466 C 294.220 164.230,293.969 164.287,303.285 164.279 C 310.162 164.273,311.340 164.325,311.607 164.646 " stroke="none" fill="#041c34" fill-rule="evenodd"></path></g></svg>